<mxfile host="app.diagrams.net" agent="Mozilla/5.0 (Windows NT 10.0; Win64; x64) AppleWebKit/537.36 (KHTML, like Gecko) Chrome/133.0.0.0 Safari/537.36" version="26.1.0">
  <diagram name="Page-1" id="bXr_p-ozqRtUT2h60Vj-">
    <mxGraphModel dx="1050" dy="557" grid="1" gridSize="10" guides="1" tooltips="1" connect="1" arrows="1" fold="1" page="1" pageScale="1" pageWidth="850" pageHeight="1100" math="0" shadow="0">
      <root>
        <mxCell id="0" />
        <mxCell id="1" parent="0" />
        <mxCell id="7gy1FGmcqqX0nP2TgmuI-1" value="Start" style="rounded=0;whiteSpace=wrap;html=1;fillColor=#d5e8d4;strokeColor=#82b366;fontStyle=1;fontFamily=Courier New;fontColor=#006600;fontSize=19;labelBorderColor=none;" vertex="1" parent="1">
          <mxGeometry x="40" y="40" width="110" height="40" as="geometry" />
        </mxCell>
        <mxCell id="7gy1FGmcqqX0nP2TgmuI-2" value="" style="endArrow=classic;html=1;rounded=0;fontColor=#006600;strokeColor=#006600;" edge="1" parent="1">
          <mxGeometry width="50" height="50" relative="1" as="geometry">
            <mxPoint x="94.5" y="80" as="sourcePoint" />
            <mxPoint x="95" y="140" as="targetPoint" />
          </mxGeometry>
        </mxCell>
        <mxCell id="7gy1FGmcqqX0nP2TgmuI-4" value="&lt;font face=&quot;Courier New&quot; color=&quot;#006600&quot;&gt;Is your outcome variable binary (i.e. Yes/No?)&lt;/font&gt;" style="ellipse;whiteSpace=wrap;html=1;fillColor=#d5e8d4;strokeColor=#82b366;" vertex="1" parent="1">
          <mxGeometry x="30" y="130" width="130" height="90" as="geometry" />
        </mxCell>
        <mxCell id="7gy1FGmcqqX0nP2TgmuI-7" value="&lt;font face=&quot;Courier New&quot; color=&quot;#006600&quot;&gt;&lt;span style=&quot;font-size: 14px;&quot;&gt;No&lt;/span&gt;&lt;/font&gt;" style="endArrow=classic;html=1;rounded=0;strokeColor=#006600;" edge="1" parent="1">
          <mxGeometry width="50" height="50" relative="1" as="geometry">
            <mxPoint x="160" y="170" as="sourcePoint" />
            <mxPoint x="240" y="150" as="targetPoint" />
          </mxGeometry>
        </mxCell>
        <mxCell id="7gy1FGmcqqX0nP2TgmuI-8" value="&lt;font face=&quot;Courier New&quot; color=&quot;#006600&quot;&gt;&lt;span style=&quot;font-size: 14px;&quot;&gt;Yes&lt;/span&gt;&lt;/font&gt;" style="endArrow=classic;html=1;rounded=0;strokeColor=#006600;" edge="1" parent="1" source="7gy1FGmcqqX0nP2TgmuI-4">
          <mxGeometry width="50" height="50" relative="1" as="geometry">
            <mxPoint x="160" y="190" as="sourcePoint" />
            <mxPoint x="240" y="210" as="targetPoint" />
          </mxGeometry>
        </mxCell>
        <mxCell id="7gy1FGmcqqX0nP2TgmuI-9" value="&lt;font face=&quot;Courier New&quot; color=&quot;#006600&quot;&gt;ROC Curve is not appropriate&lt;/font&gt;" style="ellipse;whiteSpace=wrap;html=1;fillColor=#d5e8d4;strokeColor=#82b366;" vertex="1" parent="1">
          <mxGeometry x="235" y="90" width="125" height="80" as="geometry" />
        </mxCell>
        <mxCell id="7gy1FGmcqqX0nP2TgmuI-10" value="&lt;font face=&quot;Courier New&quot; color=&quot;#006600&quot;&gt;Do you have predicted probabilities/continuous scores from your model?&lt;/font&gt;" style="ellipse;whiteSpace=wrap;html=1;fillColor=#d5e8d4;strokeColor=#82b366;" vertex="1" parent="1">
          <mxGeometry x="235" y="180" width="190" height="100" as="geometry" />
        </mxCell>
        <mxCell id="7gy1FGmcqqX0nP2TgmuI-11" value="&lt;font face=&quot;Courier New&quot; color=&quot;#006600&quot;&gt;&lt;span style=&quot;font-size: 14px;&quot;&gt;Yes&lt;/span&gt;&lt;/font&gt;" style="endArrow=classic;html=1;rounded=0;strokeColor=#006600;exitX=0.955;exitY=0.706;exitDx=0;exitDy=0;exitPerimeter=0;" edge="1" parent="1" source="7gy1FGmcqqX0nP2TgmuI-10">
          <mxGeometry width="50" height="50" relative="1" as="geometry">
            <mxPoint x="420" y="250" as="sourcePoint" />
            <mxPoint x="504" y="270" as="targetPoint" />
          </mxGeometry>
        </mxCell>
        <mxCell id="7gy1FGmcqqX0nP2TgmuI-12" value="&lt;font face=&quot;Courier New&quot; color=&quot;#006600&quot;&gt;&lt;span style=&quot;font-size: 14px;&quot;&gt;No&lt;/span&gt;&lt;/font&gt;" style="endArrow=classic;html=1;rounded=0;strokeColor=#006600;" edge="1" parent="1">
          <mxGeometry width="50" height="50" relative="1" as="geometry">
            <mxPoint x="425" y="220" as="sourcePoint" />
            <mxPoint x="505" y="200" as="targetPoint" />
          </mxGeometry>
        </mxCell>
        <mxCell id="7gy1FGmcqqX0nP2TgmuI-13" value="&lt;font face=&quot;Courier New&quot; color=&quot;#006600&quot;&gt;ROC Curve is not appropriate&lt;/font&gt;" style="ellipse;whiteSpace=wrap;html=1;fillColor=#d5e8d4;strokeColor=#82b366;" vertex="1" parent="1">
          <mxGeometry x="500" y="140" width="125" height="80" as="geometry" />
        </mxCell>
        <mxCell id="7gy1FGmcqqX0nP2TgmuI-14" value="&lt;font face=&quot;Courier New&quot; color=&quot;#006600&quot;&gt;Is your interest in exploring the diagnostic performance of your model? (i.e. true positive vs false positive)&lt;/font&gt;" style="ellipse;whiteSpace=wrap;html=1;fillColor=#d5e8d4;strokeColor=#82b366;" vertex="1" parent="1">
          <mxGeometry x="500" y="230" width="200" height="110" as="geometry" />
        </mxCell>
        <mxCell id="7gy1FGmcqqX0nP2TgmuI-15" value="&lt;font face=&quot;Courier New&quot; color=&quot;#006600&quot;&gt;&lt;span style=&quot;font-size: 14px;&quot;&gt;Yes&lt;/span&gt;&lt;/font&gt;" style="endArrow=classic;html=1;rounded=0;strokeColor=#006600;" edge="1" parent="1" source="7gy1FGmcqqX0nP2TgmuI-14">
          <mxGeometry width="50" height="50" relative="1" as="geometry">
            <mxPoint x="470" y="340" as="sourcePoint" />
            <mxPoint x="490" y="370" as="targetPoint" />
            <Array as="points">
              <mxPoint x="510" y="350" />
            </Array>
          </mxGeometry>
        </mxCell>
        <mxCell id="7gy1FGmcqqX0nP2TgmuI-17" value="&lt;font face=&quot;Courier New&quot; color=&quot;#006600&quot;&gt;&lt;span style=&quot;font-size: 14px;&quot;&gt;No&lt;/span&gt;&lt;/font&gt;" style="endArrow=classic;html=1;rounded=0;strokeColor=#006600;exitX=0.726;exitY=0.922;exitDx=0;exitDy=0;exitPerimeter=0;" edge="1" parent="1" source="7gy1FGmcqqX0nP2TgmuI-14">
          <mxGeometry width="50" height="50" relative="1" as="geometry">
            <mxPoint x="610" y="390" as="sourcePoint" />
            <mxPoint x="690" y="370" as="targetPoint" />
          </mxGeometry>
        </mxCell>
        <mxCell id="7gy1FGmcqqX0nP2TgmuI-18" value="&lt;font face=&quot;Courier New&quot; color=&quot;#006600&quot;&gt;ROC Curve is not appropriate&lt;/font&gt;" style="ellipse;whiteSpace=wrap;html=1;fillColor=#d5e8d4;strokeColor=#82b366;" vertex="1" parent="1">
          <mxGeometry x="670" y="360" width="125" height="80" as="geometry" />
        </mxCell>
        <mxCell id="7gy1FGmcqqX0nP2TgmuI-19" value="&lt;font face=&quot;Courier New&quot; color=&quot;#006600&quot;&gt;Do you need/want to compare sensitivity to 1-sensitivity?&lt;/font&gt;" style="ellipse;whiteSpace=wrap;html=1;fillColor=#d5e8d4;strokeColor=#82b366;" vertex="1" parent="1">
          <mxGeometry x="330" y="360" width="190" height="100" as="geometry" />
        </mxCell>
        <mxCell id="7gy1FGmcqqX0nP2TgmuI-21" value="&lt;font face=&quot;Courier New&quot; color=&quot;#006600&quot;&gt;&lt;span style=&quot;font-size: 14px;&quot;&gt;Yes&lt;/span&gt;&lt;/font&gt;" style="endArrow=classic;html=1;rounded=0;strokeColor=#006600;exitX=0;exitY=1;exitDx=0;exitDy=0;" edge="1" parent="1" source="7gy1FGmcqqX0nP2TgmuI-19">
          <mxGeometry width="50" height="50" relative="1" as="geometry">
            <mxPoint x="253.5" y="450" as="sourcePoint" />
            <mxPoint x="300" y="490" as="targetPoint" />
          </mxGeometry>
        </mxCell>
        <mxCell id="7gy1FGmcqqX0nP2TgmuI-22" value="&lt;font face=&quot;Courier New&quot; color=&quot;#006600&quot;&gt;Go for the ROC Curve!&lt;/font&gt;" style="ellipse;whiteSpace=wrap;html=1;fillColor=#d5e8d4;strokeColor=#82b366;" vertex="1" parent="1">
          <mxGeometry x="190" y="480" width="125" height="80" as="geometry" />
        </mxCell>
        <mxCell id="7gy1FGmcqqX0nP2TgmuI-23" value="&lt;font face=&quot;Courier New&quot; color=&quot;#006600&quot;&gt;&lt;span style=&quot;font-size: 14px;&quot;&gt;No&lt;/span&gt;&lt;/font&gt;" style="endArrow=classic;html=1;rounded=0;strokeColor=#006600;exitX=0.771;exitY=0.89;exitDx=0;exitDy=0;exitPerimeter=0;" edge="1" parent="1" source="7gy1FGmcqqX0nP2TgmuI-19">
          <mxGeometry width="50" height="50" relative="1" as="geometry">
            <mxPoint x="460" y="490" as="sourcePoint" />
            <mxPoint x="520" y="500" as="targetPoint" />
          </mxGeometry>
        </mxCell>
        <mxCell id="7gy1FGmcqqX0nP2TgmuI-25" value="&lt;font face=&quot;Courier New&quot; color=&quot;#006600&quot;&gt;ROC Curve is not necessarily inapprpriate, but may not be needed&lt;/font&gt;" style="ellipse;whiteSpace=wrap;html=1;fillColor=#d5e8d4;strokeColor=#82b366;" vertex="1" parent="1">
          <mxGeometry x="490" y="490" width="170" height="100" as="geometry" />
        </mxCell>
      </root>
    </mxGraphModel>
  </diagram>
</mxfile>
